#!OML:ASF E:/inclinewalkrobotboard/Project1/Captureday1/Session1/subject1.ASF
:FULLY-SPECIFIED
:DEGREES
313
root 0 0 0 1.997234160823544 -3.826174768982073 2.7269320140716786
lowerback 12.280291902742697 0.8573599390007076 -0.6936978758870646
upperback -4.073635466134782 1.0237741914391694 -0.7325582478159883
thorax -11.277373410078027 0.4755896028426098 -0.6297194498348284
lowerneck -7.111147249204955 1.4356734817919186 4.322543724955478
upperneck 19.244730478225417 2.9293395657848205 -8.279657413686284
head 7.202422251722618 1.0094828110982705 -3.197628298662333
rclavicle -1.338004577904367E-15 -1.884936511471543E-15
rhumerus 17.05683248016087 12.775217314048605 -50.946597808322146
rradius 68.6011887648544
rwrist 24.231029222558604
rhand -32.96248910471734 -49.23292789093303
rfingers 7.125019999999964
rthumb -6.227510937182004 -79.30999432685852
lclavicle 2.9362440661519243E-16 -3.234086920428901E-17
lhumerus 17.91900098573305 -13.685056708724474 49.34946848077307
lradius 67.32381192751438
lwrist -18.279635953965332
lhand -44.03262850306942 -60.761380964390156
lfingers 7.1250199999999575
lthumb -16.866212482557867 -31.326656928973495
rfemur -34.94906067591295 -1.5213992842569555 15.61752709241359
rtibia 53.41896443156192
rfoot -19.447210393190105 -16.309768333204605
rtoes -11.52878592322885
lfemur -24.641078638017262 4.548728923074968 -15.609753301568093
ltibia 60.3709929709004
lfoot -18.428627352344755 -1.3709800044371685
ltoes -12.033342520570002
314
root 0 0 0 2.291461624020952 -3.9677256649409287 2.538043557336755
lowerback 12.19236729451339 0.9474840176380531 -0.4936574269495543
upperback -4.115957377060103 1.1682049855000574 -0.7418467572822475
thorax -11.253999153204049 0.5393975552589227 -0.7759956825862764
lowerneck -7.066178343301427 1.4166204742889714 4.325427989807207
upperneck 19.099475831791164 2.8969623824300594 -8.234986461303336
head 7.1462909358821065 1.0010539847827782 -3.1840973229903486
rclavicle -1.4813575252193587E-15 -1.6282820574054776E-15
rhumerus 17.52658907136047 13.400962284310735 -51.31125809048191
rradius 68.98012594545209
rwrist 23.81885974506556
rhand -32.98178251583717 -49.212658125440285
rfingers 7.125019999999964
rthumb -6.24816437334875 -79.27325101029707
lclavicle 4.403147227976392E-16 2.663704190395481E-16
lhumerus 18.02872434215835 -13.922013325519792 49.43045866464678
lradius 67.4681426678378
lwrist -18.142104544902235
lhand -44.031227861827446 -60.546657936479605
lfingers 7.1250199999999575
lthumb -16.862650155869442 -31.113559711375633
rfemur -32.145425050973394 -0.754599951395599 16.901588921533556
rtibia 48.58606558659257
rfoot -23.96196630078011 -17.082918206512772
rtoes -14.19787292145615
lfemur -25.388882298609225 3.5109964228577843 -15.812640938974212
ltibia 50.74598016775084
lfoot -24.482840887240677 3.025710309664131
ltoes -13.737992249926315
315
root 0 0 0 2.5648833612362574 -4.123906309459506 2.378462708072721
lowerback 12.076246951741576 1.0503127925551123 -0.3202083882532675
upperback -4.155779465250698 1.324135556970624 -0.7661082261210462
thorax -11.211663116973751 0.6098119863657546 -0.9224012624995994
lowerneck -7.020465679728823 1.3826621924964442 4.309540475410738
upperneck 18.980260177469237 2.8416456409620565 -8.155458602099952
head 7.099432849681127 0.9834352944205885 -3.158374235153585
rclavicle -1.5012515387729316E-15 -1.3185891549113511E-15
rhumerus 17.88077815348872 13.897288836256626 -51.63359474941711
rradius 69.26627547996004
rwrist 23.46294677447637
rhand -32.98579426081628 -49.14621880146073
rfingers 7.125019999999963
rthumb -6.253526393064245 -79.19526949370481
lclavicle 6.501177725681207E-16 5.898193594057347E-16
lhumerus 18.039943894814137 -14.030461542102426 49.49560590954509
lradius 67.50761246105105
lwrist -18.05583997334717
lhand -44.011056974534824 -60.36063417923673
lfingers 7.1250199999999575
lthumb -16.841737484621284 -30.92545904545918
rfemur -28.74948028232902 0.17643114908178203 18.392683760510106
rtibia 42.96054677756234
rfoot -27.895266207869312 -17.401943780978982
rtoes -16.96956516184484
lfemur -24.74998672724113 2.3438184712019567 -16.003049192386513
ltibia 41.76161747234662
lfoot -29.286481016871228 6.248645728284795
ltoes -16.277363376282718
316
root 0 0 0 2.754358256677258 -4.229855080989435 2.272494977106597
lowerback 11.96069596805053 1.1277461141378056 -0.20886693386892352
upperback -4.182839540604249 1.437584684570724 -0.7881577006704908
thorax -11.16009574800041 0.6617703275279119 -1.0230503817712944
lowerneck -6.993982969911856 1.3457032630767116 4.285130159813577
upperneck 18.92739759211967 2.783308976099806 -8.075027475254437
head 7.078286626126659 0.9626456997567318 -3.1321560002070674
rclavicle -1.4595720792132235E-15 -9.923172358366758E-16
rhumerus 18.00918114940243 14.104568920811458 -51.805190734077996
rradius 69.3684180235763
rwrist 23.282174885519332
rhand -32.974426340567746 -49.06083796739323
rfingers 7.125019999999963
rthumb -6.242536091321417 -79.10560696762876
lclavicle 8.269273627101964E-16 8.627220425833655E-16
lhumerus 17.95100384172678 -13.986437004735512 49.53035401337419
lradius 67.43422616654298
lwrist -18.040021773985686
lhand -43.97712635811269 -60.245234373137315
lfingers 7.125019999999957
lthumb -16.80838442974665 -30.80504844363298
rfemur -26.19605114610195 1.2061289022532888 19.5269956241952
rtibia 36.79668599140223
rfoot -29.845720774349317 -17.211535601823684
rtoes -19.176992691287687
lfemur -23.306222248473436 1.2681367232250609 -16.08408460726989
ltibia 35.468713147519914
lfoot -30.561841428082218 7.291484358806938
ltoes -18.124019619439373
317
root 0 0 0 2.849348332421997 -4.262662665831818 2.214057421059372
lowerback 11.867601147843228 1.1650281140177121 -0.15359845540278438
upperback -4.1990176054904715 1.4912279641561936 -0.7986362263045087
thorax -11.11515336907078 0.6863346782295059 -1.0706956390228648
lowerneck -6.980729967748775 1.313796769207965 4.2674933837087945
upperneck 18.967150389721155 2.734532727514159 -8.02752968513054
head 7.09028429843514 0.9428762286594438 -3.118129124364474
rclavicle -1.378309484345569E-15 -7.557696748886214E-16
rhumerus 17.863427826250252 13.942424354201476 -51.75815588085048
rradius 69.24947293959582
rwrist 23.34651495994867
rhand -32.95319407135222 -48.99247067009231
rfingers 7.125019999999962
rthumb -6.220288062410793 -79.03995036518903
lclavicle 9.192707607777523E-16 1.0051530737657494E-15
lhumerus 17.77065774911017 -13.781060110314167 49.521197093391706
lradius 67.2529199229482
lwrist -18.109269181548143
lhand -43.93501900247925 -60.23720189149468
lfingers 7.125019999999956
lthumb -16.76820038861324 -30.7894587185417
rfemur -24.630655672956955 1.9692453509417052 20.016857233776456
rtibia 32.4719481419624
rfoot -29.620316999497938 -16.686112703092764
rtoes -20.571604967777883
lfemur -21.780298972931163 0.4100940723372123 -15.94051425852555
ltibia 31.747551966062403
lfoot -29.162089303886088 6.869232608897012
ltoes -19.119569431610962
318
root 0 0 0 2.860213732924771 -4.247711854055572 2.2062149379208758
lowerback 11.808505063048704 1.1707179632817497 -0.14807114654131626
upperback -4.209855169614297 1.497569659661706 -0.803830449868273
thorax -11.089257382196658 0.689171759136344 -1.078411896810223
lowerneck -6.962401213915104 1.2903258451219217 4.262921230578111
upperneck 19.096512509047844 2.7003532485974366 -8.024077051875457
head 7.131359953437517 0.9264393274687314 -3.12029686066933
rclavicle -1.1863608229215314E-15 -6.929162414957074E-16
rhumerus 17.50792225395155 13.48752698748934 -51.52266665326073
rradius 68.96256177135582
rwrist 23.618723590653516
rhand -32.9293912652981 -48.96075148937691
rfingers 7.125019999999962
rthumb -6.194892673197366 -79.01872697250188
lclavicle 9.89653648390237E-16 9.647591228463155E-16
lhumerus 17.541135284879466 -13.45210406576096 49.46447014118059
lradius 67.00192088799133
lwrist -18.256309743301102
lhand -43.8959711357106 -60.352526575958336
lfingers 7.125019999999955
lthumb -16.731742124775934 -30.89771659684772
rfemur -23.89671936481333 2.125190507008626 19.786542205537582
rtibia 32.11996274052534
rfoot -27.57378789163722 -15.988778369151362
rtoes -21.078158347000066
lfemur -20.340411503073543 -0.057456937142822184 -15.60741345455278
ltibia 31.096198986272057
lfoot -26.462031847279405 5.447585418437709
ltoes -19.829573733917037
319
root 0 0 0 2.7844508192479878 -4.214128878573202 2.260279509288184
lowerback 11.793574551639583 1.1559654266757815 -0.1958580938689597
upperback -4.216209606782479 1.470764151514419 -0.8122094695113281
thorax -11.08973895750415 0.677360037045283 -1.0552406678869297
lowerneck -6.929362495031119 1.2799411415830317 4.270289619271881
upperneck 19.279969721680317 2.6870975194760085 -8.05883101708317
head 7.188077387741679 0.9169344151723683 -3.135497309129451
rclavicle -8.99645820366848E-16 -7.972181599654842E-16
rhumerus 17.052558337004427 12.881581885143083 -51.17346868194949
rradius 68.59599179494617
rwrist 24.01366420100656
rhand -32.9096993519498 -48.97325657659277
rfingers 7.125019999999962
rthumb -6.173774791025089 -79.04876587139492
lclavicle 1.0446145119477887E-15 7.759761746169801E-16
lhumerus 17.332210476016954 -13.085163532242246 49.368276693822295
lradius 66.75053823539434
lwrist -18.447851604594472
lhand -43.87339491434652 -60.575668653952086
lfingers 7.125019999999955
lthumb -16.711514336911886 -31.117171248696653
rfemur -24.313803678703017 1.549187379545574 18.793926838654116
rtibia 36.37662292498237
rfoot -23.883712436511203 -15.208950628780489
rtoes -20.45889466414429
lfemur -19.000207171513786 -0.008730807161683174 -15.245924028499385
ltibia 33.748905658601835
lfoot -23.219588203202953 3.2134464093651376
ltoes -20.44091694868711
320
root 0 0 0 2.609530208027561 -4.163969892007669 2.39414874253626
lowerback 11.833608763494162 1.1210157943035348 -0.3140260815306427
upperback -4.212313866412833 1.4090334194358276 -0.826861107458489
thorax -11.118111529092412 0.6506444109019323 -0.9942874581944985
lowerneck -6.891155040105494 1.289070524518017 4.284110881816908
upperneck 19.45811266851969 2.7032921981757134 -8.116245460947185
head 7.24209017040597 0.9192565428750584 -3.1565353914764014
rclavicle -5.956984554222982E-16 -1.0326714875475707E-15
rhumerus 16.58804960987753 12.244827023116647 -50.77868878459459
rradius 68.2224311100826
rwrist 24.454286234613114
rhand -32.89807299358028 -49.029409292658606
rfingers 7.125019999999962
rthumb -6.161206491288496 -79.1276931695268
lclavicle 1.0641808019493515E-15 4.897747210283819E-16
lhumerus 17.20095736140103 -12.765516663385679 49.24871086455583
lradius 66.5626512593943
lwrist -18.64367534380529
lhand -43.87690761595741 -60.8739117634916
lfingers 7.125019999999955
lthumb -16.71641429900539 -31.415381410463194
rfemur -26.398486775348047 0.21299760726058237 17.014993758783977
rtibia 45.23906497650613
rfoot -18.587909344001325 -14.397846452526576
rtoes -18.337774224860063
lfemur -17.785685737097516 0.6865097395761063 -14.968523835763657
ltibia 40.47076495282697
lfoot -19.664414694938525 0.062328100894665894
ltoes -20.930387957446655
